<?xml version="1.0" standalone="no"?>
<!DOCTYPE svg PUBLIC "-//W3C//DTD SVG 20010904//EN"
 "http://www.w3.org/TR/2001/REC-SVG-20010904/DTD/svg10.dtd">
<svg version="1.0" xmlns="http://www.w3.org/2000/svg"
 width="1360.000000pt" height="510.000000pt" viewBox="0 0 1360.000000 510.000000"
 preserveAspectRatio="xMidYMid meet">

<g transform="translate(0.000000,510.000000) scale(0.100000,-0.100000)"
fill="#000000" stroke="none">
<path d="M7691 4370 c-62 -22 -83 -39 -120 -95 -23 -37 -26 -49 -26 -145 0
-91 3 -112 24 -153 25 -51 99 -131 216 -233 83 -72 115 -129 115 -201 0 -69
-33 -103 -100 -103 -67 0 -91 28 -97 114 l-6 66 -83 0 -84 0 0 -45 c0 -127 42
-210 129 -252 49 -25 67 -28 151 -28 81 0 102 4 143 25 91 46 135 141 124 271
-3 39 -15 85 -28 111 -24 47 -104 147 -125 155 -27 10 -157 139 -179 178 -22
37 -29 73 -26 133 2 36 44 72 85 72 72 0 103 -31 108 -105 l3 -40 84 -3 84 -3
-6 66 c-11 117 -72 196 -173 224 -59 17 -153 13 -213 -9z"/>
<path d="M9000 4370 c-64 -23 -124 -82 -140 -139 -13 -47 -13 -734 0 -781 14
-51 66 -109 119 -133 37 -17 66 -21 146 -21 120 0 179 22 226 87 51 71 54 94
54 467 l0 345 -30 60 c-20 39 -44 68 -70 87 -74 50 -207 63 -305 28z m173
-142 c46 -24 46 -25 46 -388 0 -256 -3 -349 -12 -361 -42 -54 -140 -50 -166 8
-15 33 -15 673 0 707 19 42 86 59 132 34z"/>
<path d="M10731 4370 c-95 -35 -137 -92 -150 -201 -19 -159 25 -236 246 -426
109 -94 145 -212 84 -274 -23 -23 -38 -29 -71 -29 -33 0 -48 6 -71 29 -26 26
-29 36 -29 90 l0 61 -86 0 -87 0 5 -85 c8 -113 42 -171 126 -212 50 -25 68
-28 152 -28 85 0 100 3 145 28 99 55 143 169 116 299 -16 81 -48 135 -119 202
-31 29 -88 82 -126 117 -96 90 -129 163 -106 234 15 45 44 65 95 65 57 0 86
-32 93 -100 l5 -50 85 0 85 0 -7 63 c-8 70 -32 130 -66 166 -62 64 -217 89
-319 51z"/>
<path d="M6170 4361 c0 -18 49 -312 70 -421 6 -30 20 -111 31 -180 11 -69 32
-199 48 -290 l27 -165 137 -3 c106 -2 137 0 138 10 0 7 2 20 4 28 2 8 17 94
34 190 16 96 32 189 35 205 20 113 106 629 106 636 0 5 -36 9 -80 9 -93 0 -79
21 -110 -175 -26 -163 -100 -622 -106 -653 -8 -40 -22 -15 -34 61 -6 39 -22
142 -36 227 -13 85 -28 178 -33 205 -5 28 -20 114 -32 193 l-23 142 -88 0
c-80 0 -88 -2 -88 -19z"/>
<path d="M7070 3840 l0 -540 90 0 90 0 0 540 0 540 -90 0 -90 0 0 -540z"/>
<path d="M8370 4378 c0 -2 0 -244 0 -538 l-1 -535 87 0 87 0 -2 535 -1 535
-85 3 c-47 1 -85 1 -85 0z"/>
<path d="M9700 3840 l0 -540 80 0 80 0 2 368 c2 237 7 367 13 366 6 0 45 -119
88 -265 44 -145 93 -310 110 -367 l32 -103 90 3 90 3 0 535 0 535 -77 3 -78 3
-2 -303 c-2 -179 -7 -303 -12 -303 -8 0 -84 233 -101 305 -2 8 -17 62 -35 120
-18 58 -37 122 -42 143 l-10 37 -114 0 -114 0 0 -540z"/>
<path d="M11675 4368 c-3 -7 -4 -249 -3 -538 l3 -525 85 0 85 0 3 538 2 537
-85 0 c-59 0 -87 -4 -90 -12z"/>
<path d="M12160 3840 l0 -540 80 0 80 0 0 364 c0 222 4 367 10 371 5 3 21 -32
34 -77 50 -163 119 -394 132 -441 7 -27 25 -87 39 -133 l26 -85 92 3 92 3 3
538 3 538 -83 -3 -83 -3 -2 -275 c-1 -151 -2 -288 -3 -305 l-1 -30 -13 25 c-7
14 -48 144 -91 290 -43 146 -82 273 -87 283 -7 15 -24 17 -118 17 l-110 0 0
-540z"/>
<path d="M712 4260 c-32 -14 -47 -29 -58 -57 -27 -64 -17 -91 101 -278 25 -38
48 -77 52 -85 3 -8 79 -134 168 -280 89 -146 193 -317 230 -380 38 -63 72
-116 77 -118 4 -2 8 -8 8 -13 0 -8 222 -377 332 -551 26 -42 48 -79 48 -82 0
-3 26 -47 58 -98 79 -126 141 -227 279 -460 65 -109 120 -197 123 -198 3 0 23
33 45 73 21 39 47 88 58 107 58 104 119 212 151 268 20 35 36 66 36 68 0 3 33
62 73 132 41 70 93 165 118 211 60 114 86 141 138 141 30 0 48 -7 71 -27 l31
-28 -1 -345 c0 -194 4 -368 10 -398 12 -67 71 -163 119 -196 66 -45 129 -59
248 -54 88 3 116 8 152 27 61 32 113 83 142 138 l24 48 0 730 0 730 -33 57
c-37 64 -120 132 -181 147 -20 6 -90 13 -156 16 -117 7 -181 22 -256 61 -35
18 -118 97 -142 135 -25 42 -57 144 -57 186 l0 38 -16 -30 c-27 -51 -467 -917
-494 -972 -16 -33 -32 -52 -42 -53 -10 0 -18 4 -18 9 0 8 -209 346 -232 376
-5 6 -88 138 -186 295 -97 157 -195 313 -217 348 -22 35 -52 82 -66 105 -102
164 -163 249 -189 262 -23 12 -75 15 -267 15 -214 0 -242 -2 -281 -20z"/>
<path d="M5007 2319 c-58 -45 -56 -152 2 -202 24 -20 41 -24 103 -26 83 -2
116 7 148 41 31 33 41 64 34 109 -7 39 -51 99 -73 99 -19 0 -12 -49 9 -70 30
-30 27 -83 -6 -109 -22 -17 -41 -21 -100 -21 -62 0 -76 3 -94 22 -29 32 -27
88 5 118 27 25 34 60 11 60 -7 0 -25 -9 -39 -21z"/>
<path d="M4970 1995 l0 -25 105 0 c77 0 105 -3 105 -12 0 -7 -30 -33 -68 -58
-115 -76 -142 -100 -142 -126 l0 -24 160 0 160 0 0 25 0 25 -110 0 c-60 0
-110 4 -110 8 0 4 50 43 110 85 90 63 110 82 110 102 l0 25 -160 0 -160 0 0
-25z"/>
<path d="M4968 1645 c-3 -13 -3 -27 0 -30 3 -3 77 -5 164 -5 l158 0 0 30 0 30
-159 0 -159 0 -4 -25z"/>
<path d="M1590 1055 l0 -125 80 0 c64 0 80 3 80 15 0 12 -14 15 -65 15 l-65 0
0 40 0 39 57 3 c81 4 85 28 4 28 l-61 0 0 40 0 40 65 0 c51 0 65 3 65 15 0 12
-16 15 -80 15 l-80 0 0 -125z"/>
<path d="M1870 1055 l0 -125 59 0 c49 0 65 4 88 24 26 23 28 29 28 101 0 72
-2 78 -28 101 -23 20 -39 24 -88 24 l-59 0 0 -125z m131 73 c11 -17 11 -129 0
-147 -5 -8 -27 -15 -53 -15 l-43 -1 -3 79 c-4 105 -1 110 50 103 22 -3 45 -11
49 -19z"/>
<path d="M2162 1079 c3 -96 4 -102 31 -125 18 -15 41 -24 62 -24 21 0 44 9 62
24 27 23 28 29 31 125 3 87 2 101 -12 101 -13 0 -16 -14 -16 -88 0 -105 -13
-132 -65 -132 -52 0 -65 27 -65 132 0 74 -3 88 -16 88 -14 0 -15 -14 -12 -101z"/>
<path d="M2497 1159 c-82 -64 -42 -229 55 -229 41 0 85 27 69 43 -8 8 -14 8
-23 -1 -19 -19 -73 -14 -94 9 -14 15 -19 36 -19 74 0 38 5 59 19 74 21 23 75
28 94 9 9 -9 15 -9 23 -1 15 15 -27 43 -67 43 -17 0 -43 -9 -57 -21z"/>
<path d="M2819 1153 c-47 -122 -79 -209 -79 -215 0 -5 6 -8 13 -8 7 0 19 16
26 35 12 34 14 35 66 35 52 0 54 -1 65 -35 6 -19 18 -35 26 -35 18 0 17 4 -38
148 -42 107 -60 124 -79 75z m44 -78 l16 -45 -36 0 c-29 0 -34 3 -28 18 4 9
12 29 17 45 5 15 11 27 13 27 2 0 10 -20 18 -45z"/>
<path d="M3010 1165 c0 -11 11 -15 40 -15 l40 0 0 -110 c0 -91 3 -110 15 -110
12 0 15 19 15 110 l0 110 40 0 c29 0 40 4 40 15 0 12 -17 15 -95 15 -78 0 -95
-3 -95 -15z"/>
<path d="M3310 1055 c0 -104 2 -125 15 -125 13 0 15 21 15 125 0 104 -2 125
-15 125 -13 0 -15 -21 -15 -125z"/>
<path d="M3487 1159 c-56 -43 -60 -148 -7 -201 68 -68 170 -7 170 102 0 94
-96 153 -163 99z m97 -30 c22 -18 26 -28 26 -74 0 -46 -4 -56 -26 -74 -15 -12
-32 -21 -39 -21 -7 0 -24 9 -39 21 -22 18 -26 28 -26 74 0 46 4 56 26 74 15
12 32 21 39 21 7 0 24 -9 39 -21z"/>
<path d="M3770 1055 c0 -104 2 -125 15 -125 12 0 15 16 15 80 0 44 4 80 10 80
5 0 31 -36 57 -80 26 -43 54 -79 61 -80 9 0 12 31 12 125 0 104 -2 125 -15
125 -12 0 -15 -16 -15 -80 0 -44 -4 -80 -10 -80 -5 0 -31 36 -57 80 -26 43
-54 79 -60 80 -10 0 -13 -31 -13 -125z"/>
<path d="M4129 1153 c-47 -122 -79 -209 -79 -215 0 -5 6 -8 13 -8 7 0 19 16
26 35 12 34 14 35 66 35 52 0 54 -1 65 -35 6 -19 18 -35 26 -35 18 0 17 4 -38
148 -42 107 -60 124 -79 75z m44 -78 l16 -45 -36 0 c-29 0 -34 3 -28 18 4 9
12 29 17 45 5 15 11 27 13 27 2 0 10 -20 18 -45z"/>
<path d="M4380 1055 l0 -125 76 0 c56 0 75 3 72 13 -3 7 -27 13 -61 15 l-57 3
0 109 c0 91 -3 110 -15 110 -13 0 -15 -21 -15 -125z"/>
<path d="M4810 1055 c0 -104 2 -125 15 -125 11 0 15 13 15 55 l0 54 57 3 c81
4 85 28 4 28 l-61 0 0 40 0 40 65 0 c51 0 65 3 65 15 0 12 -16 15 -80 15 l-80
0 0 -125z"/>
<path d="M5119 1153 c-47 -122 -79 -209 -79 -215 0 -5 6 -8 13 -8 7 0 19 16
26 35 12 34 14 35 66 35 52 0 54 -1 65 -35 6 -19 18 -35 26 -35 18 0 17 4 -38
148 -42 107 -60 124 -79 75z m44 -78 l16 -45 -36 0 c-29 0 -34 3 -28 18 4 9
12 29 17 45 5 15 11 27 13 27 2 0 10 -20 18 -45z"/>
<path d="M5377 1159 c-82 -64 -42 -229 55 -229 41 0 85 27 69 43 -8 8 -14 8
-23 -1 -19 -19 -73 -14 -94 9 -14 15 -19 36 -19 74 0 38 5 59 19 74 21 23 75
28 94 9 9 -9 15 -9 23 -1 15 15 -27 43 -67 43 -17 0 -43 -9 -57 -21z"/>
<path d="M5630 1055 c0 -104 2 -125 15 -125 13 0 15 21 15 125 0 104 -2 125
-15 125 -13 0 -15 -21 -15 -125z"/>
<path d="M5790 1055 l0 -125 76 0 c56 0 75 3 72 13 -3 7 -27 13 -61 15 l-57 3
0 109 c0 91 -3 110 -15 110 -13 0 -15 -21 -15 -125z"/>
<path d="M6040 1055 c0 -104 2 -125 15 -125 13 0 15 21 15 125 0 104 -2 125
-15 125 -13 0 -15 -21 -15 -125z"/>
<path d="M6180 1165 c0 -11 11 -15 40 -15 l40 0 0 -110 c0 -91 3 -110 15 -110
12 0 15 19 15 110 l0 110 40 0 c29 0 40 4 40 15 0 12 -17 15 -95 15 -78 0 -95
-3 -95 -15z"/>
<path d="M6500 1100 c29 -58 40 -92 40 -125 0 -33 4 -45 15 -45 11 0 15 11 15
39 0 24 15 72 40 125 28 61 35 86 25 86 -8 0 -26 -27 -41 -60 -15 -33 -32 -60
-38 -60 -6 1 -23 28 -38 60 -16 36 -33 60 -43 60 -12 0 -6 -18 25 -80z"/>
<path d="M6965 1160 c-17 -18 -17 -25 -6 -55 11 -31 10 -38 -8 -61 -56 -72 19
-140 113 -104 16 6 27 6 31 -1 10 -16 24 0 18 21 -3 11 0 33 5 50 9 24 8 30
-3 30 -7 0 -17 -9 -20 -21 -9 -26 -33 -21 -58 13 l-20 27 27 31 c31 38 32 44
6 70 -26 26 -62 26 -85 0z m65 -29 c0 -10 -7 -24 -16 -32 -13 -10 -17 -10 -25
2 -18 28 -9 49 23 49 11 0 18 -7 18 -19z m-7 -126 c23 -29 25 -36 12 -41 -8
-3 -26 -3 -40 0 -19 5 -25 13 -25 35 0 51 15 53 53 6z"/>
<path d="M7457 1159 c-82 -64 -42 -229 55 -229 41 0 85 27 69 43 -8 8 -14 8
-23 -1 -19 -19 -73 -14 -94 9 -14 15 -19 36 -19 74 0 38 5 59 19 74 21 23 75
28 94 9 9 -9 15 -9 23 -1 15 15 -27 43 -67 43 -17 0 -43 -9 -57 -21z"/>
<path d="M7737 1159 c-56 -43 -60 -148 -7 -201 68 -68 170 -7 170 102 0 94
-96 153 -163 99z m97 -30 c22 -18 26 -28 26 -74 0 -46 -4 -56 -26 -74 -15 -12
-32 -21 -39 -21 -7 0 -24 9 -39 21 -22 18 -26 28 -26 74 0 46 4 56 26 74 15
12 32 21 39 21 7 0 24 -9 39 -21z"/>
<path d="M8010 1056 c0 -104 3 -126 15 -126 10 0 15 16 17 63 2 34 8 61 13 61
6 -1 21 -30 34 -63 13 -34 29 -60 34 -58 5 1 19 29 32 62 30 82 45 83 45 1 0
-52 3 -66 15 -66 13 0 15 21 15 125 0 156 -13 164 -62 38 -19 -51 -39 -88 -47
-88 -8 0 -27 36 -46 85 -20 53 -38 86 -49 88 -14 3 -16 -11 -16 -122z"/>
<path d="M8350 1056 c0 -104 3 -126 15 -126 10 0 15 16 17 63 2 34 8 61 13 61
6 -1 21 -30 34 -63 13 -34 29 -60 34 -58 5 1 19 29 32 62 30 82 45 83 45 1 0
-52 3 -66 15 -66 13 0 15 21 15 125 0 156 -13 164 -62 38 -19 -51 -39 -88 -47
-88 -8 0 -27 36 -46 85 -20 53 -38 86 -49 88 -14 3 -16 -11 -16 -122z"/>
<path d="M8702 1079 c3 -96 4 -102 31 -125 18 -15 41 -24 62 -24 21 0 44 9 62
24 27 23 28 29 31 125 3 87 2 101 -12 101 -13 0 -16 -14 -16 -88 0 -105 -13
-132 -65 -132 -52 0 -65 27 -65 132 0 74 -3 88 -16 88 -14 0 -15 -14 -12 -101z"/>
<path d="M9010 1055 c0 -104 2 -125 15 -125 12 0 15 16 15 80 0 44 4 80 10 80
5 0 31 -36 57 -80 26 -43 54 -79 61 -80 9 0 12 31 12 125 0 104 -2 125 -15
125 -12 0 -15 -16 -15 -80 0 -44 -4 -80 -10 -80 -5 0 -31 36 -57 80 -26 43
-54 79 -60 80 -10 0 -13 -31 -13 -125z"/>
<path d="M9310 1055 c0 -104 2 -125 15 -125 13 0 15 21 15 125 0 104 -2 125
-15 125 -13 0 -15 -21 -15 -125z"/>
<path d="M9440 1165 c0 -11 11 -15 40 -15 l40 0 0 -110 c0 -91 3 -110 15 -110
12 0 15 19 15 110 l0 110 40 0 c29 0 40 4 40 15 0 12 -17 15 -95 15 -78 0 -95
-3 -95 -15z"/>
<path d="M9770 1100 c29 -58 40 -92 40 -125 0 -33 4 -45 15 -45 11 0 15 11 15
39 0 24 15 72 40 125 28 61 35 86 25 86 -8 0 -26 -27 -41 -60 -15 -33 -32 -60
-38 -60 -6 1 -23 28 -38 60 -16 36 -33 60 -43 60 -12 0 -6 -18 25 -80z"/>
<path d="M10380 1055 c0 -104 2 -125 15 -125 11 0 15 12 15 49 l0 48 50 5 c62
6 90 29 90 74 0 53 -31 74 -107 74 l-63 0 0 -125z m124 79 c19 -18 19 -20 6
-45 -8 -14 -21 -19 -55 -19 -44 0 -45 1 -45 33 0 19 3 37 7 40 12 13 72 7 87
-9z"/>
<path d="M10660 1055 l0 -125 76 0 c56 0 75 3 72 13 -3 7 -27 13 -61 15 l-57
3 0 109 c0 91 -3 110 -15 110 -13 0 -15 -21 -15 -125z"/>
<path d="M10989 1153 c-47 -122 -79 -209 -79 -215 0 -5 6 -8 13 -8 7 0 19 16
26 35 12 34 14 35 66 35 52 0 54 -1 65 -35 6 -19 18 -35 26 -35 18 0 17 4 -38
148 -42 107 -60 124 -79 75z m44 -78 l16 -45 -36 0 c-29 0 -34 3 -28 18 4 9
12 29 17 45 5 15 11 27 13 27 2 0 10 -20 18 -45z"/>
<path d="M11230 1055 c0 -104 2 -125 15 -125 12 0 15 16 15 80 0 44 4 80 10
80 5 0 31 -36 57 -80 26 -43 54 -79 61 -80 9 0 12 31 12 125 0 104 -2 125 -15
125 -12 0 -15 -16 -15 -80 0 -44 -4 -80 -10 -80 -5 0 -31 36 -57 80 -26 43
-54 79 -60 80 -10 0 -13 -31 -13 -125z"/>
<path d="M11530 1055 c0 -104 2 -125 15 -125 12 0 15 16 15 80 0 44 4 80 10
80 5 0 31 -36 57 -80 26 -43 54 -79 61 -80 9 0 12 31 12 125 0 104 -2 125 -15
125 -12 0 -15 -16 -15 -80 0 -44 -4 -80 -10 -80 -5 0 -31 36 -57 80 -26 43
-54 79 -60 80 -10 0 -13 -31 -13 -125z"/>
<path d="M11830 1055 l0 -125 80 0 c64 0 80 3 80 15 0 12 -14 15 -65 15 l-65
0 0 40 0 39 57 3 c81 4 85 28 4 28 l-61 0 0 40 0 40 65 0 c51 0 65 3 65 15 0
12 -16 15 -80 15 l-80 0 0 -125z"/>
<path d="M12110 1055 c0 -104 2 -125 15 -125 12 0 15 13 15 55 0 52 2 55 24
55 19 0 31 -12 56 -55 17 -30 38 -55 46 -55 10 0 5 14 -16 49 -17 26 -30 52
-30 56 0 4 11 16 25 27 34 27 33 70 -1 97 -20 15 -41 21 -80 21 l-54 0 0 -125z
m114 79 c19 -18 19 -20 6 -45 -8 -14 -21 -19 -50 -19 -39 0 -40 1 -40 33 0 19
3 37 7 40 12 13 62 7 77 -9z"/>
<path d="M12405 1155 c-44 -43 -26 -78 55 -104 61 -20 81 -41 64 -68 -15 -25
-102 -31 -110 -9 -7 17 -34 22 -34 7 0 -21 54 -51 92 -51 69 0 115 73 71 113
-10 8 -40 22 -67 29 -53 16 -73 35 -63 62 7 18 91 23 102 6 3 -5 14 -10 23
-10 13 1 10 6 -11 25 -38 33 -89 34 -122 0z"/>
</g>
</svg>
